{
  "accessors": [
    {
      "bufferView": 2,
      "componentType": 5126,
      "count": 488,
      "max": [
        0.903885006904602,
        -0.03098299913108349,
        0.0011749400291591883
      ],
      "min": [
        0.7752820253372192,
        -0.4177600145339966,
        -0.12742899358272552
      ],
      "type": "VEC3"
    },
    {
      "bufferView": 2,
      "byteOffset": 5856,
      "componentType": 5126,
      "count": 488,
      "max": [
        0.999850869178772,
        1.0,
        0.999850869178772
      ],
      "min": [
        -0.999850869178772,
        -1.0,
        -0.999850869178772
      ],
      "type": "VEC3"
    },
    {
      "bufferView": 3,
      "componentType": 5126,
      "count": 488,
      "max": [
        0.9999857544898987,
        1.0,
        1.0,
        1.0
      ],
      "min": [
        -0.9998510479927063,
        -1.0,
        -1.0,
        1.0
      ],
      "type": "VEC4"
    },
    {
      "bufferView": 1,
      "componentType": 5126,
      "count": 488,
      "max": [
        0.9754499793052673,
        0.9779980182647705
      ],
      "min": [
        0.8828650116920471,
        0.5193570256233215
      ],
      "type": "VEC2"
    },
    {
      "bufferView": 0,
      "componentType": 5125,
      "count": 768,
      "type": "SCALAR"
    },
    {
      "bufferView": 2,
      "byteOffset": 11712,
      "componentType": 5126,
      "count": 488,
      "max": [
        0.841143012046814,
        -0.03098299913108349,
        0.4780539870262146
      ],
      "min": [
        0.7033910155296326,
        -0.4177600145339966,
        0.3403019905090332
      ],
      "type": "VEC3"
    },
    {
      "bufferView": 2,
      "byteOffset": 17568,
      "componentType": 5126,
      "count": 488,
      "max": [
        0.9965323805809021,
        1.0,
        0.9525187611579895
      ],
      "min": [
        -0.9965322613716125,
        -1.0,
        -0.9993576407432556
      ],
      "type": "VEC3"
    },
    {
      "bufferView": 3,
      "byteOffset": 7808,
      "componentType": 5126,
      "count": 488,
      "max": [
        0.9525216221809387,
        1.0,
        1.0,
        1.0
      ],
      "min": [
        -0.9993576407432556,
        -1.0,
        -1.0,
        1.0
      ],
      "type": "VEC4"
    },
    {
      "bufferView": 1,
      "byteOffset": 3904,
      "componentType": 5126,
      "count": 488,
      "max": [
        0.9754499793052673,
        0.9779980182647705
      ],
      "min": [
        0.8828650116920471,
        0.5193570256233215
      ],
      "type": "VEC2"
    },
    {
      "bufferView": 0,
      "byteOffset": 3072,
      "componentType": 5125,
      "count": 768,
      "type": "SCALAR"
    },
    {
      "bufferView": 2,
      "byteOffset": 23424,
      "componentType": 5126,
      "count": 64,
      "max": [
        0.8370159864425659,
        -0.09429799765348434,
        0.40088799595832825
      ],
      "min": [
        0.7717329859733582,
        -0.158269003033638,
        -0.05708970129489899
      ],
      "type": "VEC3"
    },
    {
      "bufferView": 2,
      "byteOffset": 24192,
      "componentType": 5126,
      "count": 64,
      "max": [
        0.9950411319732666,
        1.0,
        0.9900762438774109
      ],
      "min": [
        -0.9950411319732666,
        -1.0,
        -0.9900760054588318
      ],
      "type": "VEC3"
    },
    {
      "bufferView": 3,
      "byteOffset": 15616,
      "componentType": 5126,
      "count": 64,
      "max": [
        0.9900913834571838,
        0.2442326843738556,
        0.9900761842727661,
        1.0
      ],
      "min": [
        -0.14053300023078918,
        -0.2442322075366974,
        -0.9900760650634766,
        1.0
      ],
      "type": "VEC4"
    },
    {
      "bufferView": 1,
      "byteOffset": 7808,
      "componentType": 5126,
      "count": 64,
      "max": [
        0.7447090148925781,
        0.6301670074462891
      ],
      "min": [
        0.5585560202598572,
        0.3819639980792999
      ],
      "type": "VEC2"
    },
    {
      "bufferView": 0,
      "byteOffset": 6144,
      "componentType": 5125,
      "count": 156,
      "type": "SCALAR"
    },
    {
      "bufferView": 2,
      "byteOffset": 24960,
      "componentType": 5126,
      "count": 488,
      "max": [
        -0.6748809814453125,
        -0.03098299913108349,
        0.5241550207138062
      ],
      "min": [
        -0.8058019876480103,
        -0.4177600145339966,
        0.3932349979877472
      ],
      "type": "VEC3"
    },
    {
      "bufferView": 2,
      "byteOffset": 30816,
      "componentType": 5126,
      "count": 488,
      "max": [
        0.9978210926055908,
        1.0,
        0.9978217482566833
      ],
      "min": [
        -0.9978210926055908,
        -1.0,
        -0.9978215098381042
      ],
      "type": "VEC3"
    },
    {
      "bufferView": 3,
      "byteOffset": 16640,
      "componentType": 5126,
      "count": 488,
      "max": [
        0.9978232383728027,
        1.0,
        1.0,
        1.0
      ],
      "min": [
        -0.9981134533882141,
        -1.0,
        -1.0,
        1.0
      ],
      "type": "VEC4"
    },
    {
      "bufferView": 1,
      "byteOffset": 8320,
      "componentType": 5126,
      "count": 488,
      "max": [
        0.9754499793052673,
        0.9779980182647705
      ],
      "min": [
        0.8828650116920471,
        0.5193570256233215
      ],
      "type": "VEC2"
    },
    {
      "bufferView": 0,
      "byteOffset": 6768,
      "componentType": 5125,
      "count": 768,
      "type": "SCALAR"
    },
    {
      "bufferView": 2,
      "byteOffset": 36672,
      "componentType": 5126,
      "count": 64,
      "max": [
        -0.7405909895896912,
        -0.09429799765348434,
        0.4508019983768463
      ],
      "min": [
        -0.870352029800415,
        -0.158269003033638,
        0.00576181011274457
      ],
      "type": "VEC3"
    },
    {
      "bufferView": 2,
      "byteOffset": 37440,
      "componentType": 5126,
      "count": 64,
      "max": [
        0.9640439748764038,
        1.0,
        0.9640437364578247
      ],
      "min": [
        -0.9640439748764038,
        -1.0,
        -0.9640442132949829
      ],
      "type": "VEC3"
    },
    {
      "bufferView": 3,
      "byteOffset": 24448,
      "componentType": 5126,
      "count": 64,
      "max": [
        0.9640471935272217,
        0.24423359334468842,
        0.964043915271759,
        1.0
      ],
      "min": [
        -0.2978551983833313,
        -0.24423347413539886,
        -0.964043915271759,
        1.0
      ],
      "type": "VEC4"
    },
    {
      "bufferView": 1,
      "byteOffset": 12224,
      "componentType": 5126,
      "count": 64,
      "max": [
        0.7447090148925781,
        0.6301670074462891
      ],
      "min": [
        0.5585560202598572,
        0.3819639980792999
      ],
      "type": "VEC2"
    },
    {
      "bufferView": 0,
      "byteOffset": 9840,
      "componentType": 5125,
      "count": 156,
      "type": "SCALAR"
    },
    {
      "bufferView": 2,
      "byteOffset": 38208,
      "componentType": 5126,
      "count": 488,
      "max": [
        -0.7977420091629028,
        -0.03098299913108349,
        0.06781379878520966
      ],
      "min": [
        -0.9359729886054993,
        -0.4177600145339966,
        -0.07041739672422409
      ],
      "type": "VEC3"
    },
    {
      "bufferView": 2,
      "byteOffset": 44064,
      "componentType": 5126,
      "count": 488,
      "max": [
        1.0,
        1.0,
        0.9988744854927063
      ],
      "min": [
        -1.0,
        -1.0,
        -0.9238789081573486
      ],
      "type": "VEC3"
    },
    {
      "bufferView": 3,
      "byteOffset": 25472,
      "componentType": 5126,
      "count": 488,
      "max": [
        0.9988744258880615,
        1.0,
        1.0,
        1.0
      ],
      "min": [
        -0.9238942265510559,
        -1.0,
        -1.0,
        1.0
      ],
      "type": "VEC4"
    },
    {
      "bufferView": 1,
      "byteOffset": 12736,
      "componentType": 5126,
      "count": 488,
      "max": [
        0.9754499793052673,
        0.9779980182647705
      ],
      "min": [
        0.8828650116920471,
        0.5193570256233215
      ],
      "type": "VEC2"
    },
    {
      "bufferView": 0,
      "byteOffset": 10464,
      "componentType": 5125,
      "count": 768,
      "type": "SCALAR"
    },
    {
      "bufferView": 2,
      "byteOffset": 49920,
      "componentType": 5126,
      "count": 349,
      "max": [
        0.9541260004043579,
        0.4612570106983185,
        -0.23512500524520874
      ],
      "min": [
        -0.9541260004043579,
        -0.4204680025577545,
        -0.983443021774292
      ],
      "type": "VEC3"
    },
    {
      "bufferView": 2,
      "byteOffset": 54108,
      "componentType": 5126,
      "count": 349,
      "max": [
        1.0,
        1.0,
        1.0
      ],
      "min": [
        -0.9999897480010986,
        -1.0,
        -0.991445004940033
      ],
      "type": "VEC3"
    },
    {
      "bufferView": 3,
      "byteOffset": 33280,
      "componentType": 5126,
      "count": 349,
      "max": [
        0.9999995231628418,
        0.9997597336769104,
        0.9999874830245972,
        1.0
      ],
      "min": [
        -0.8660265207290649,
        -0.7022480964660645,
        -0.9998717308044434,
        1.0
      ],
      "type": "VEC4"
    },
    {
      "bufferView": 1,
      "byteOffset": 16640,
      "componentType": 5126,
      "count": 349,
      "max": [
        0.989109992980957,
        0.9858199954032898
      ],
      "min": [
        0.006457389798015356,
        0.003581549972295761
      ],
      "type": "VEC2"
    },
    {
      "bufferView": 0,
      "byteOffset": 13536,
      "componentType": 5125,
      "count": 705,
      "type": "SCALAR"
    },
    {
      "bufferView": 2,
      "byteOffset": 58296,
      "componentType": 5126,
      "count": 352,
      "max": [
        1.0,
        -0.41730400919914246,
        1.0
      ],
      "min": [
        -1.0,
        -0.4612570106983185,
        -1.0
      ],
      "type": "VEC3"
    },
    {
      "bufferView": 2,
      "byteOffset": 62520,
      "componentType": 5126,
      "count": 352,
      "max": [
        1.0,
        1.0,
        1.0
      ],
      "min": [
        -1.0,
        -1.5992899449202014e-08,
        -1.0
      ],
      "type": "VEC3"
    },
    {
      "bufferView": 3,
      "byteOffset": 38864,
      "componentType": 5126,
      "count": 352,
      "max": [
        0.9999999403953552,
        0.99668949842453,
        0.5290160179138184,
        1.0
      ],
      "min": [
        -1.1073196048982936e-07,
        -0.9966352581977844,
        -0.5251703858375549,
        1.0
      ],
      "type": "VEC4"
    },
    {
      "bufferView": 1,
      "byteOffset": 19432,
      "componentType": 5126,
      "count": 352,
      "max": [
        0.6118239760398865,
        0.9842900037765503
      ],
      "min": [
        0.018075300380587578,
        0.3885450065135956
      ],
      "type": "VEC2"
    },
    {
      "bufferView": 0,
      "byteOffset": 16356,
      "componentType": 5125,
      "count": 1320,
      "type": "SCALAR"
    }
  ],
  "asset": {
    "extras": {
      "author": "rueds (https://sketchfab.com/rueds)",
      "license": "CC-BY-4.0 (http://creativecommons.org/licenses/by/4.0/)",
      "source": "https://sketchfab.com/3d-models/retro-style-stage-54b1f0860599454c92ad8e2aaa68cb56",
      "title": "Retro style stage"
    },
    "generator": "Sketchfab-11.53.2",
    "version": "2.0"
  },
  "bufferViews": [
    {
      "buffer": 0,
      "byteLength": 21636,
      "name": "floatBufferViews",
      "target": 34963
    },
    {
      "buffer": 0,
      "byteLength": 22248,
      "byteOffset": 21636,
      "byteStride": 8,
      "name": "floatBufferViews",
      "target": 34962
    },
    {
      "buffer": 0,
      "byteLength": 66744,
      "byteOffset": 43884,
      "byteStride": 12,
      "name": "floatBufferViews",
      "target": 34962
    },
    {
      "buffer": 0,
      "byteLength": 44496,
      "byteOffset": 110628,
      "byteStride": 16,
      "name": "floatBufferViews",
      "target": 34962
    }
  ],
  "buffers": [
    {
      "byteLength": 155124,
      "uri": "scene.bin"
    }
  ],
  "images": [
    {
      "uri": "textures/blinn1_baseColor.jpeg"
    },
    {
      "uri": "textures/blinn1_metallicRoughness.png"
    },
    {
      "uri": "textures/blinn1_normal.png"
    }
  ],
  "materials": [
    {
      "doubleSided": true,
      "name": "blinn1",
      "normalTexture": {
        "index": 2
      },
      "occlusionTexture": {
        "index": 1
      },
      "pbrMetallicRoughness": {
        "baseColorTexture": {
          "index": 0
        },
        "metallicRoughnessTexture": {
          "index": 1
        }
      }
    }
  ],
  "meshes": [
    {
      "name": "defaultMaterial",
      "primitives": [
        {
          "attributes": {
            "NORMAL": 1,
            "POSITION": 0,
            "TANGENT": 2,
            "TEXCOORD_0": 3
          },
          "indices": 4,
          "material": 0,
          "mode": 4
        }
      ]
    },
    {
      "name": "defaultMaterial",
      "primitives": [
        {
          "attributes": {
            "NORMAL": 6,
            "POSITION": 5,
            "TANGENT": 7,
            "TEXCOORD_0": 8
          },
          "indices": 9,
          "material": 0,
          "mode": 4
        }
      ]
    },
    {
      "name": "defaultMaterial",
      "primitives": [
        {
          "attributes": {
            "NORMAL": 11,
            "POSITION": 10,
            "TANGENT": 12,
            "TEXCOORD_0": 13
          },
          "indices": 14,
          "material": 0,
          "mode": 4
        }
      ]
    },
    {
      "name": "defaultMaterial",
      "primitives": [
        {
          "attributes": {
            "NORMAL": 16,
            "POSITION": 15,
            "TANGENT": 17,
            "TEXCOORD_0": 18
          },
          "indices": 19,
          "material": 0,
          "mode": 4
        }
      ]
    },
    {
      "name": "defaultMaterial",
      "primitives": [
        {
          "attributes": {
            "NORMAL": 21,
            "POSITION": 20,
            "TANGENT": 22,
            "TEXCOORD_0": 23
          },
          "indices": 24,
          "material": 0,
          "mode": 4
        }
      ]
    },
    {
      "name": "defaultMaterial",
      "primitives": [
        {
          "attributes": {
            "NORMAL": 26,
            "POSITION": 25,
            "TANGENT": 27,
            "TEXCOORD_0": 28
          },
          "indices": 29,
          "material": 0,
          "mode": 4
        }
      ]
    },
    {
      "name": "defaultMaterial",
      "primitives": [
        {
          "attributes": {
            "NORMAL": 31,
            "POSITION": 30,
            "TANGENT": 32,
            "TEXCOORD_0": 33
          },
          "indices": 34,
          "material": 0,
          "mode": 4
        }
      ]
    },
    {
      "name": "defaultMaterial",
      "primitives": [
        {
          "attributes": {
            "NORMAL": 36,
            "POSITION": 35,
            "TANGENT": 37,
            "TEXCOORD_0": 38
          },
          "indices": 39,
          "material": 0,
          "mode": 4
        }
      ]
    }
  ],
  "nodes": [
    {
      "children": [
        1
      ],
      "matrix": [
        3.173266649246216,
        0.0,
        0.0,
        0.0,
        0.0,
        7.046067394536539e-16,
        -3.173266649246216,
        0.0,
        0.0,
        3.173266649246216,
        7.046067394536539e-16,
        0.0,
        0.0,
        0.0,
        0.0,
        1.0
      ],
      "name": "Sketchfab_model"
    },
    {
      "children": [
        2,
        4,
        6,
        8,
        10,
        12,
        14,
        16
      ],
      "matrix": [
        1.0,
        0.0,
        0.0,
        0.0,
        0.0,
        -4.371139006309477e-08,
        0.999999999999999,
        0.0,
        0.0,
        -0.999999999999999,
        -4.371139006309477e-08,
        0.0,
        0.0,
        0.0,
        0.0,
        1.0
      ],
      "name": "Collada visual scene group"
    },
    {
      "children": [
        3
      ],
      "name": "pSphere4"
    },
    {
      "mesh": 0,
      "name": "defaultMaterial"
    },
    {
      "children": [
        5
      ],
      "name": "pSphere3"
    },
    {
      "mesh": 1,
      "name": "defaultMaterial"
    },
    {
      "children": [
        7
      ],
      "name": "pCube3"
    },
    {
      "mesh": 2,
      "name": "defaultMaterial"
    },
    {
      "children": [
        9
      ],
      "name": "pSphere2"
    },
    {
      "mesh": 3,
      "name": "defaultMaterial"
    },
    {
      "children": [
        11
      ],
      "name": "pCube2"
    },
    {
      "mesh": 4,
      "name": "defaultMaterial"
    },
    {
      "children": [
        13
      ],
      "name": "pSphere1"
    },
    {
      "mesh": 5,
      "name": "defaultMaterial"
    },
    {
      "children": [
        15
      ],
      "name": "polySurface2"
    },
    {
      "mesh": 6,
      "name": "defaultMaterial"
    },
    {
      "children": [
        17
      ],
      "name": "polySurface1"
    },
    {
      "mesh": 7,
      "name": "defaultMaterial"
    }
  ],
  "samplers": [
    {
      "magFilter": 9729,
      "minFilter": 9987,
      "wrapS": 10497,
      "wrapT": 10497
    }
  ],
  "scene": 0,
  "scenes": [
    {
      "name": "Sketchfab_Scene",
      "nodes": [
        0
      ]
    }
  ],
  "textures": [
    {
      "sampler": 0,
      "source": 0
    },
    {
      "sampler": 0,
      "source": 1
    },
    {
      "sampler": 0,
      "source": 2
    }
  ]
}
